{"title":"Zbynek Brynych -- Transport z raje [1963]","uid":11265833,"size":1465223258,"categoryP":"video","categoryS":"movies","magnet":"?xt=urn:btih:c2a442e28955d3009995ab6d04d6bb3f50e46e01&amp;dn=Zbynek+Brynych+--+Transport+z+raje+%5B1963%5D&amp;tr=udp%3A%2F%2Ftracker.openbittorrent.com%3A80&amp;tr=udp%3A%2F%2Fopen.demonii.com%3A1337&amp;tr=udp%3A%2F%2Ftracker.coppersurfer.tk%3A6969&amp;tr=udp%3A%2F%2Fexodus.desync.com%3A6969","seeders":1,"leechers":0,"uploader":"rpessoa","files":2,"time":1414018680,"description":"Transport from Paradise is set in an unusual World War II concentration camp. The lax Nazi guards permit their Jewish prisoners to roam freely about the camp and conduct their own business and social affairs, without the threat of instant extermination looming over their heads. The prisoners' main fear is that they may at any moment be shipped off to one of the death camps. In the film's incredibly heartbreaking climax, a group of prisoners willingly board a train to Auschwitz, laboring under the delusion that they are being sent to another &quot;paradise&quot; camp at the behest of the Council of Jewish Elders. Though it stretches credibility at times, Transport from Paradise is purportedly based on a true story.\n\n &lt;a href=&quot;\nhttp://www.imdb.com/title/tt0056609/&quot; rel=&quot;nofollow&quot; target=&quot;_NEW&quot;&gt;\nhttp://www.imdb.com/title/tt0056609/&lt;/a&gt;\n\nGeneral\nComplete name                            : Zbynek Brynych - Transport z raje [1963].avi\nFormat                                   : AVI\nFormat/Info                              : Audio Video Interleave\nFile size                                : 1.36 GiB\nDuration                                 : 1h 32mn\nOverall bit rate                         : 2 114 Kbps\nWriting application                      : VirtualDubMod 1.5.4.1 (build 2178/release)\nWriting library                          : VirtualDubMod build 2178/release\n\nVideo\nID                                       : 0\nFormat                                   : MPEG-4 Visual\nFormat profile                           : Advanced Simple@L5\nFormat settings, BVOP                    : 1\nFormat settings, QPel                    : No\nFormat settings, GMC                     : No warppoints\nFormat settings, Matrix                  : Custom\nCodec ID                                 : XVID\nCodec ID/Hint                            : XviD\nDuration                                 : 1h 32mn\nBit rate                                 : 1 883 Kbps\nWidth                                    : 688 pixels\nHeight                                   : 512 pixels\nDisplay aspect ratio                     : 4:3\nFrame rate                               : 25.000 fps\nColor space                              : YUV\nChroma subsampling                       : 4:2:0\nBit depth                                : 8 bits\nScan type                                : Progressive\nCompression mode                         : Lossy\nBits/(Pixel*Frame)                       : 0.214\nStream size                              : 1.22 GiB (89%)\nWriting library                          : XviD 64\n\nAudio\nID                                       : 1\nFormat                                   : AC-3\nFormat/Info                              : Audio Coding 3\nMode extension                           : CM (complete main)\nCodec ID                                 : 2000\nDuration                                 : 1h 32mn\nBit rate mode                            : Constant\nBit rate                                 : 224 Kbps\nChannel(s)                               : 2 channels\nChannel positions                        : Front: L R\nSampling rate                            : 48.0 KHz\nBit depth                                : 16 bits\nCompression mode                         : Lossy\nDelay relative to video                  : 16ms\nStream size                              : 148 MiB (11%)\nAlignment                                : Split accross interleaves\nInterleave, duration                     : 96 ms (2.40 video frames)\nInterleave, preload duration             : 96 ms","torrent":{"xt":"urn:btih:c2a442e28955d3009995ab6d04d6bb3f50e46e01","amp;dn":"Zbynek+Brynych+--+Transport+z+raje+%5B1963%5D","amp;tr":["udp%3A%2F%2Ftracker.openbittorrent.com%3A80","udp%3A%2F%2Fopen.demonii.com%3A1337","udp%3A%2F%2Ftracker.coppersurfer.tk%3A6969","udp%3A%2F%2Fexodus.desync.com%3A6969"],"infoHash":"c2a442e28955d3009995ab6d04d6bb3f50e46e01","infoHashBuffer":{"type":"Buffer","data":[194,164,66,226,137,85,211,0,153,149,171,109,4,214,187,63,80,228,110,1]},"announce":[],"urlList":[]}}